<?xml version="1.0" encoding="utf-8"?>
<!-- Generator: Adobe Illustrator 16.0.0, SVG Export Plug-In . SVG Version: 6.00 Build 0)  -->
<!DOCTYPE svg PUBLIC "-//W3C//DTD SVG 1.0//EN" "http://www.w3.org/TR/2001/REC-SVG-20010904/DTD/svg10.dtd">
<svg version="1.0" id="Layer_1" xmlns="http://www.w3.org/2000/svg" xmlns:xlink="http://www.w3.org/1999/xlink" x="0px" y="0px"
	 width="64px" height="64px" viewBox="0 0 64 64" enable-background="new 0 0 64 64" xml:space="preserve">
<path display="none" fill-rule="evenodd" clip-rule="evenodd" d="M42.422,64.383c-6.982,0-9.251-5.903-9.251-13.247
	c0-7.343,2.269-13.174,9.251-13.174c6.983,0,9.251,5.831,9.251,13.174C51.673,58.479,49.405,64.383,42.422,64.383z M42.422,42.245
	c-3.491,0-4.499,3.924-4.499,8.891c0,5.04,1.008,8.999,4.499,8.999c3.492,0,4.5-3.959,4.5-8.999
	C46.922,46.169,45.914,42.245,42.422,42.245z M32.749,23.617c-6.627,0-12-5.373-12-12s5.373-12,12-12s12,5.373,12,12
	S39.376,23.617,32.749,23.617z M29.39,41.31l-5.867,7.343c3.455,0.54,6.587,3.132,6.587,7.451c0,4.247-3.312,8.279-9.106,8.279
	c-5.544,0-8.676-3.6-8.676-3.6l2.376-3.527c0,0,2.483,2.735,6.264,2.735c2.52,0,4.355-1.584,4.355-3.815
	c0-2.268-2.088-3.744-4.823-3.744h-1.8l-0.937-2.34l4.319-5.795c0.864-1.296,1.692-1.943,1.692-1.943v-0.072
	c0,0-0.792,0.108-2.268,0.108h-3.204c-0.504,0-0.792,0.287-0.792,0.791v1.548h-4.247v-3.887c0-1.692,0.504-2.448,2.231-2.448H29.39
	V41.31z"/>
<path display="none" fill-rule="evenodd" clip-rule="evenodd" d="M42.656,61.883c-6.984,0-9.252-5.903-9.252-13.247
	c0-7.343,2.268-13.174,9.252-13.174c6.982,0,9.25,5.831,9.25,13.174C51.906,55.979,49.639,61.883,42.656,61.883z M42.656,39.745
	c-3.492,0-4.5,3.924-4.5,8.891c0,5.04,1.008,8.999,4.5,8.999s4.5-3.959,4.5-8.999C47.156,43.669,46.148,39.745,42.656,39.745z
	 M32.623,16.117c-3.866,0-7-3.134-7-7s3.134-7,7-7c3.866,0,7,3.134,7,7S36.488,16.117,32.623,16.117z M29.334,43.021
	c0,8.64-12.346,9.144-12.346,13.786c0,0.469,0.287,0.648,0.972,0.648h7.487c0.504,0,0.792-0.288,0.792-0.792v-1.548h4.247v3.888
	c0,1.728-0.72,2.447-2.448,2.447H14.72c-2.231,0-2.627-0.972-2.627-3.383c0-9.251,12.49-8.747,12.49-14.975
	c0-2.016-1.512-3.312-3.708-3.312c-2.016,0-3.347,1.044-3.347,2.016v1.116h-4.248v-2.52c0-3.384,4.464-4.932,7.775-4.932
	C25.519,35.462,29.334,38.27,29.334,43.021z"/>
<path display="none" fill-rule="evenodd" clip-rule="evenodd" d="M41.27,60.383c-6.982,0-9.25-5.903-9.25-13.247
	c0-7.343,2.268-13.174,9.25-13.174c6.984,0,9.252,5.831,9.252,13.174C50.521,54.479,48.254,60.383,41.27,60.383z M41.27,38.245
	c-3.49,0-4.5,3.924-4.5,8.891c0,5.04,1.01,8.999,4.5,8.999c3.492,0,4.5-3.959,4.5-8.999C45.77,42.169,44.762,38.245,41.27,38.245z
	 M31.281,11.617c-2.209,0-4-1.791-4-4s1.791-4,4-4c2.209,0,4,1.791,4,4S33.49,11.617,31.281,11.617z M29.641,59.95H13.912v-3.995
	h5.507V41.772c0-0.863,0.036-1.728,0.036-1.728h-0.072c0,0-0.288,0.612-1.115,1.44l-2.052,1.943l-2.736-2.88l6.407-6.155h4.248
	v21.562h5.507V59.95z"/>
<path display="none" fill-rule="evenodd" clip-rule="evenodd" d="M61.768,13.033L35.172,41.656c-1.421-3.55-4.484-6.253-8.254-7.185
	L55.983,7.249c1.598-1.597,4.187-1.597,5.784,0C63.364,8.846,63.364,11.435,61.768,13.033z M32.035,47.108
	c0,0.989-0.149,1.943-0.417,2.847l0.417,0.153c-0.36,0.611-0.758,1.165-1.171,1.691c-1.566,2.941-4.559,5.001-8.055,5.27
	c-9.738,2.793-21.774-1.961-21.774-1.961c6.86-2.519,9.868-6.865,11.137-9.579c0.759-4.771,4.879-8.421,9.863-8.421
	C27.558,37.108,32.035,41.586,32.035,47.108z"/>
<path fill-rule="evenodd" clip-rule="evenodd" d="M60.368,22.654C63.128,28.51,60.365,32,53.962,32s-12-2.856-12-9.346
	c0-6.49,7.654-15.129,13.623-16.892C71.333,1.111,52.252,5.442,60.368,22.654z M13.962,27.922l-12-12.023
	C1.962,15.898,7.835,4,19.837,4c4.69,0,8.503,1.855,11.399,4.102c0.629,0.487,1.214,0.992,1.756,1.502
	c3.284,3.085,4.97,6.295,4.97,6.295l-12,12.023H13.962z M21.962,37.941V60h-4V37.941c0-0.674,0.334-1.268,0.844-1.631L13.962,30h12
	l-4.845,6.311C21.627,36.674,21.962,37.268,21.962,37.941z M53.962,41.941V60h-4V41.941c0-0.674,0.334-1.268,0.844-1.631L45.962,34
	h11l-3.982,6.225C53.565,40.574,53.962,41.209,53.962,41.941z"/>
<path display="none" fill-rule="evenodd" clip-rule="evenodd" d="M34.137,41.548c-1.42-3.55-4.484-6.253-8.254-7.185L54.949,7.14
	c1.597-1.597,4.186-1.597,5.783,0c1.597,1.598,1.597,4.187,0,5.784L34.137,41.548z M33,7C18.641,7,7,18.641,7,33
	c0,3.001,0.534,5.871,1.469,8.553c-0.831,0.459-1.598,1.018-2.3,1.646C4.775,39.738,4,35.961,4,32C4,15.432,17.432,2,34,2
	c6.416,0,12.355,2.021,17.232,5.45l-4.045,3.777C43.105,8.563,38.238,7,33,7z M20,20c0-0.553,0.447-1,1-1h10c0.553,0,1,0.447,1,1
	s-0.447,1-1,1H21C20.447,21,20,20.553,20,20z M11.137,45.421C11.896,40.65,16.016,37,21,37c5.523,0,10,4.478,10,10
	c0,0.989-0.148,1.943-0.417,2.847L31,50c-0.361,0.611-0.758,1.165-1.171,1.691c-1.566,2.941-4.558,5.001-8.055,5.27
	C12.036,59.754,0,55,0,55C6.86,52.481,9.868,48.135,11.137,45.421z M46,36c0.553,0,1,0.447,1,1v4h4c0.553,0,1,0.447,1,1
	s-0.447,1-1,1h-4v4c0,0.552-0.447,1-1,1s-1-0.448-1-1v-4h-4c-0.553,0-1-0.447-1-1s0.447-1,1-1h4v-4C45,36.447,45.447,36,46,36z
	 M33,59c14.359,0,26-11.641,26-26c0-4.206-1.021-8.166-2.795-11.681l3.868-4.15C62.568,21.544,64,26.604,64,32
	c0,16.568-13.432,30-30,30c-3.428,0-6.717-0.583-9.785-1.642c0.596-0.736,1.102-1.546,1.521-2.407C28.043,58.622,30.476,59,33,59z"
	/>
<path display="none" fill-rule="evenodd" clip-rule="evenodd" d="M59.586,44.317c-0.949,3.55-0.654,6.972,0.568,9.242
	c-2.412,1.77-6.564,2.94-11.289,2.94c-6.09,0-9.465-0.734-11.318-1.918c-1.918,1.177-4.645,1.918-7.681,1.918
	c-3.068,0-5.82-0.757-7.74-1.956c-4.422-1.816-14.417-5.552-20.76-5.044c0,0,0.033-7.59,2-13c2.885-7.938,11.084-20.438,16-22
	c0,0,2.834-6,5-7c0,0,12,2.333,11,5s-5.666,5.167-6,7c0,0-3.521,0.136-4-2c0,0-3.021,0.583-4,3c-0.5,1.235,0.791,12.073-6,17
	c0,0-2.686,3.138,0.442,2.187C17.172,36.118,21.6,33.5,26.866,33.5c4.893,0,9.06,2.262,10.722,5.445
	c2.184-2.618,7.078-4.445,12.777-4.445c5.287,0,9.887,1.571,12.27,3.889C61.32,39.891,60.225,41.938,59.586,44.317z"/>
<path display="none" fill-rule="evenodd" clip-rule="evenodd" d="M57.661,19.656c-0.106,0.395-0.238,0.761-0.39,1.105
	c-0.023,0.104-0.039,0.208-0.066,0.313c-1.145,4.264-5.523,6.795-9.783,5.655c-4.259-1.14-6.784-5.52-5.641-9.783
	c0.789-2.938,3.115-5.054,5.879-5.712c5.72-2.516,7.779-10.236,7.779-10.236S60.405,9.463,57.661,19.656z M10.877,45.514
	C9.166,46.5,6.978,45.916,5.99,44.21c-0.986-1.705-0.399-3.888,1.313-4.874l1.471-0.912l0.373,0.734
	c0.835,1.643,2.846,2.306,4.489,1.48c1.645-0.825,2.3-2.825,1.466-4.468l-0.646-1.271l0.119-0.074l0.362,0.568
	c0.997,1.564,2.964,1.975,4.394,0.917c0.906-0.672,1.374-1.772,1.344-2.888c1.043,0.605,2.387,0.771,3.594,0.327
	c1.324-0.486,2.111-1.574,2.176-2.751c1.171,0.964,3,1.295,4.614,0.706c2.062-0.752,2.974-2.706,2.038-4.364l-1.674-2.968
	l6.738-4.181c0.279,3.384,2.205,6.455,5.175,8.175L10.877,45.514z M29.809,29.786c-1.426,0.552-3.108,0.013-3.756-1.203
	l-3.283-6.164c-0.647-1.216-0.016-2.648,1.411-3.2s3.108-0.014,3.757,1.202l3.283,6.164C31.868,27.8,31.236,29.233,29.809,29.786z
	 M23.424,32.03c-1.469,0.529-3.205-0.071-3.881-1.342l-3.42-6.439c-0.675-1.27-0.031-2.729,1.437-3.258
	c1.468-0.53,3.205,0.07,3.88,1.341l3.42,6.439C25.535,30.042,24.892,31.5,23.424,32.03z M17.85,35.26
	c-1.183,0.816-2.734,0.394-3.467-0.943l-3.711-6.78c-0.732-1.337-0.367-3.083,0.814-3.898c1.182-0.816,2.733-0.395,3.465,0.943
	l3.713,6.779C19.396,32.698,19.031,34.443,17.85,35.26z M11.111,30.161l2.982,5.656c0.588,1.115,0.127,2.474-1.032,3.034
	c-1.158,0.561-2.575,0.11-3.163-1.006l-2.982-5.656c-0.589-1.115-0.127-2.474,1.031-3.034C9.106,28.595,10.522,29.045,11.111,30.161
	z M18.363,43.984l15.71-8.788c0.843-0.472,1.54-1.105,2.093-1.839l3.102,5.372c1.657,2.87,0.674,6.539-2.195,8.196
	c0,0-3.826,1.055-6.563,2.634c-2.889,1.668-4.696,3.866-4.696,3.866c-2.87,1.657-6.54,0.674-8.196-2.196l-3.799-6.581
	C15.313,44.968,16.915,44.795,18.363,43.984z M25.508,55.537l13.955-8c1.928-1.104,4.391-0.448,5.504,1.465
	c1.112,1.913,0.452,4.359-1.475,5.464l-13.955,8c-1.928,1.104-4.391,0.449-5.504-1.464C22.921,59.089,23.581,56.642,25.508,55.537z
	 M38.861,52.502c0.557,0.956,1.788,1.284,2.752,0.731c0.963-0.552,1.293-1.775,0.736-2.731c-0.556-0.957-1.787-1.285-2.752-0.732
	C38.635,50.322,38.305,51.545,38.861,52.502z"/>
<path display="none" fill-rule="evenodd" clip-rule="evenodd" d="M59.57,57.689l-1.893-7.994l4.027-1.203l1.893,7.994L59.57,57.689z
	 M50.446,35.695l3.514-2.008l4.142,7.1l-3.515,2.008L50.446,35.695z M40.485,24.453l2.828-2.828l5.657,5.657l-2.829,2.828
	L40.485,24.453z M34.828,24.453c-1.562,1.563-4.095,1.563-5.656,0l-5.657-5.656c-1.563-1.563-1.563-4.095,0-5.657l5.657-5.656
	c1.562-1.563,4.095-1.563,5.656,0l5.657,5.656c1.562,1.563,1.562,4.095,0,5.657L34.828,24.453z M32,10.311l-5.657,5.656L32,21.625
	l5.657-5.657L32,10.311z M17.857,30.11l-2.828-2.828l5.657-5.657l2.828,2.828L17.857,30.11z M5.898,40.787l4.141-7.1l3.515,2.008
	l-4.141,7.1L5.898,40.787z M4.43,57.689l-4.027-1.203l1.893-7.994l4.027,1.203L4.43,57.689z"/>
<path display="none" fill-rule="evenodd" clip-rule="evenodd" d="M51,29H35V13l4,5L53,7l4,4L46,25L51,29z M32,7
	C18.192,7,7,18.192,7,32c0,4.372,1.128,8.479,3.101,12.054L7.464,47.41C4.651,42.941,3,37.669,3,32C3,15.983,15.983,3,32,3
	c5.798,0,11.187,1.72,15.717,4.651l-3.355,2.637C40.713,8.206,36.501,7,32,7z M11,37h16v16l-4-5L9,59l-4-4l11-14L11,37z M32,57
	c13.807,0,25-11.193,25-25c0-4.501-1.206-8.713-3.287-12.361l2.637-3.355C59.28,20.814,61,26.202,61,32c0,16.017-12.983,29-29,29
	c-5.669,0-10.941-1.651-15.409-4.464l3.355-2.637C23.521,55.872,27.628,57,32,57z"/>
<path display="none" fill-rule="evenodd" clip-rule="evenodd" d="M24,8l-4,4l9,13l-4,4l-13-9l-4,4V8H24z M25,35l4,4l-9,13l4,4H8V40
	l4,4L25,35z M40,8h16v16l-4-4l-13,9l-4-4l9-13L40,8z M39,35l13,9l4-4v16H40l4-4l-9-13L39,35z"/>
<path display="none" fill-rule="evenodd" clip-rule="evenodd" d="M12,28l5-4L6,10l4-4l14,11l4-5v16H12z M10,58l-4-4l11-14l-5-4h16
	v16l-4-5L10,58z M52,28H36V12l4,5L54,6l4,4L47,24L52,28z M54,58L40,47l-4,5V36h16l-5,4l11,14L54,58z"/>
<path display="none" fill-rule="evenodd" clip-rule="evenodd" d="M53.333,64H10.666C4.775,64,0,59.225,0,53.334V10.667
	C0,4.776,4.775,0,10.666,0H43l-7,8H14C10.686,8,8,10.686,8,14v36c0,3.314,2.686,6,6,6h36c3.313,0,6-2.686,6-6V28l0,0l8-7v32.333
	C64,59.225,59.225,64,53.333,64z M30,26l8,8l-11,3L30,26z M40.747,32.041l-8.771-8.751L51.271,4.037l0.426,0.425
	C52.406,4.167,53.184,4,54,4c3.313,0,6,2.687,6,6c0,0.812-0.166,1.584-0.457,2.29l0.498,0.497L40.747,32.041z"/>
<path display="none" fill-rule="evenodd" clip-rule="evenodd" d="M60,36c-2.209,0-4-1.791-4-4c0-2.209,1.791-4,4-4s4,1.791,4,4
	C64,34.209,62.209,36,60,36z M52,16c-2.209,0-4-1.791-4-4c0-2.209,1.791-4,4-4s4,1.791,4,4C56,14.209,54.209,16,52,16z M32,52
	c-11.046,0-20-8.955-20-20c0-11.046,8.954-20,20-20s20,8.954,20,20C52,43.045,43.046,52,32,52z M32,8c-2.209,0-4-1.791-4-4
	c0-2.209,1.791-4,4-4s4,1.791,4,4C36,6.209,34.209,8,32,8z M12,16c-2.209,0-4-1.791-4-4c0-2.209,1.791-4,4-4s4,1.791,4,4
	C16,14.209,14.209,16,12,16z M4,36c-2.209,0-4-1.791-4-4c0-2.209,1.791-4,4-4s4,1.791,4,4C8,34.209,6.209,36,4,36z M12,48
	c2.209,0,4,1.791,4,4s-1.791,4-4,4s-4-1.791-4-4S9.791,48,12,48z M32,56c2.209,0,4,1.791,4,4s-1.791,4-4,4s-4-1.791-4-4
	S29.791,56,32,56z M52,48c2.209,0,4,1.791,4,4s-1.791,4-4,4s-4-1.791-4-4S49.791,48,52,48z"/>
<path display="none" fill-rule="evenodd" clip-rule="evenodd" d="M24,16c0,15.464,12.535,28,28,28c3.68,0,7.184-0.729,10.404-2.02
	C58.209,54.765,46.186,64,32,64C14.327,64,0,49.673,0,32C0,15.363,12.696,1.696,28.928,0.149C25.825,4.657,24,10.113,24,16z"/>
<path display="none" fill-rule="evenodd" clip-rule="evenodd" d="M32,64C14.327,64,0,49.673,0,32C0,14.327,14.327,0,32,0
	c17.673,0,32,14.327,32,32C64,49.673,49.674,64,32,64z M46,34H31V15c0-1.657-1.344-3-3-3s-3,1.343-3,3v22c0,1.656,1.344,3,3,3h18
	c1.656,0,3-1.344,3-3S47.656,34,46,34z"/>
<path display="none" fill-rule="evenodd" clip-rule="evenodd" d="M32,64C14.327,64,0,49.673,0,32C0,14.327,14.327,0,32,0
	c17.673,0,32,14.327,32,32C64,49.673,49.674,64,32,64z M32,6C17.641,6,6,17.64,6,32c0,14.36,11.641,26,26,26
	c14.289,0,25.876-11.53,25.99-25.793c-0.635,0.837-1.463,1.768-2.563,2.827C50.857,39.447,44,28.414,44,28.414s4.572,4.414,6.857,0
	c1.641-3.17,4.453-4.06,5.912-4.312C53.426,13.605,43.605,6,32,6z M39.525,40.186c-0.154,0.693-1.08,2.357-1.695,3.468
	c-0.617,1.11-0.926,1.525-1.697,2.081c-0.771,0.555-1.234,1.525-1.234,1.525l-0.154,2.358c0,0,0.771,1.526,1.234,2.22
	S35.053,56,35.053,56c-1.338-0.23-2.263-0.555-2.726-1.665s-1.131-0.833-0.977-2.081s-2.16-2.773-2.623-3.468
	c-0.462-0.694-1.079-1.665-1.079-2.358s-1.697-1.664-1.697-1.664s-3.085-1.25-3.548-1.804c-0.463-0.556-0.926-2.913-1.08-3.885
	s0.463-3.468,0.463-3.468s1.234-0.833,0.463-1.527c-0.771-0.693-0.926-2.496-0.926-2.496L18.545,32c0,0-2.391-1.489-2.545-2.182
	c-0.154-0.693-0.154-3.669,0-4.364c0.153-0.693,0-3.67,0-4.364C21.76,8.381,33.973,8,33.973,8l0.771,2.914
	c0,0-1.697,0.416-2.623,0.139c-0.926-0.278-1.389-0.278-1.389-0.278L29.499,12.3c0,0-0.463,0.971-0.617,1.526
	c-0.154,0.555,0.309,1.388,0.309,1.388s2.16,0.139,2.16-0.416c0-0.555-0.309-0.833-0.309-0.833l-0.309-0.971
	c0,0,1.697-1.041,5.4-0.763c3.701,0.277,2.236,2.982,3.779,3.537c1.543,0.555-1.654,4.822-1.93,3.607
	c0.85,3.746-1.115-0.722-3.162,3.33c-0.771,1.526-3.162,1.526-3.162,1.526s0.463,0.694,0.926,1.526
	c0.462,0.833-0.154,2.774-0.154,3.329s-2.777-0.971-3.086-2.358c-0.309-1.387-1.234-0.971-1.852-0.832
	c-0.616,0.138-2.622,0.555-2.931-0.139c-0.309-0.694-2.236,1.387-3.008,1.803c-0.771,0.417-1.312,1.526-0.077,0.971
	c1.234-0.554,2.854,0.139,2.545,1.249c-0.154-0.693-0.309,1.11,0,0c0.154,0.694-0.54,2.22-0.23,3.191
	c0.308,0.971,3.239,0.139,4.164-0.277c0.926-0.416,3.549-0.832,3.857,0.277s5.939,0.971,7.019,1.248s3.703,1.111,4.938,2.221
	C45.002,37.549,39.68,39.491,39.525,40.186z"/>
<path display="none" fill-rule="evenodd" clip-rule="evenodd" d="M56,60h-8v-4h8v-8h4v8C60,58.209,58.209,60,56,60z M56,8h-8V4h8
	c2.209,0,4,1.791,4,4v8h-4V8z M8,16H4V8c0-2.209,1.791-4,4-4h8v4H8V16z M12,12h40v40H12V12z M18,46h28V18H18V46z M8,56h8v4H8
	c-2.209,0-4-1.791-4-4v-8h4V56z"/>
<g display="none">
	<circle display="inline" cx="10.5" cy="45.5" r="2"/>
	<circle display="inline" cx="34.5" cy="5.5" r="2"/>
	<circle display="inline" cx="10.5" cy="61.5" r="2"/>
	<circle display="inline" cx="38.5" cy="17.5" r="2"/>
	<circle display="inline" cx="46.5" cy="9.5" r="2"/>
	<circle display="inline" cx="54.5" cy="17.5" r="2"/>
	<circle display="inline" cx="62.5" cy="5.5" r="2"/>
	<circle display="inline" cx="50.5" cy="25.5" r="2"/>
	<circle display="inline" cx="14.5" cy="53.5" r="2"/>
	<circle display="inline" cx="22.5" cy="49.5" r="2"/>
	<path display="inline" d="M55.006,49.162L31.695,24.896c-1.646-1.639-4.128-1.824-5.773-0.185l-0.279,0.278
		c-1.646,1.639-1.459,4.111,0.186,5.75l24.365,23.216c1.637,1.63,3.723,2.194,5.364,0.587
		C57.172,52.906,56.643,50.791,55.006,49.162z"/>
	<path display="inline" d="M55.584,54.521c-0.008,0.009-0.018,0.013-0.026,0.021s-0.013,0.019-0.022,0.027L55.584,54.521z"/>
	<circle display="inline" cx="22.5" cy="61.5" r="2"/>
	<circle display="inline" cx="14.5" cy="37.5" r="2"/>
	<polygon display="inline" points="20.434,11.565 20.437,11.531 20.343,11.484 21.579,-0.5 13.029,7.852 12.944,7.81 12.889,7.864 
		3.929,3.469 8.416,12.234 8.373,12.275 8.414,12.359 0.5,20.089 11.777,19.171 11.801,19.221 11.984,19.207 18.277,31.5 
		19.607,18.616 19.801,18.601 19.809,18.518 32.5,17.484 	"/>
</g>
<path display="none" fill-rule="evenodd" clip-rule="evenodd" d="M32.705,39.996c-5.232,0.104-10.353-0.223-14.963-0.88
	c0.121-2.556,0.348-5.222,0.688-7.956c1.992-16.066,9.532-28.084,16.319-31.035c15.688,1.336,28.119,13.992,29.15,29.764
	C62.632,35.231,49.194,39.672,32.705,39.996z M16.43,31.206c-0.324,2.611-0.543,5.156-0.668,7.605
	C8.21,37.533,2.313,35.329,0.024,32.645C0.02,32.429,0,32.217,0,32C0,14.327,14.327,0,32,0c0.379,0,0.754,0.016,1.129,0.028
	C26.245,2.686,18.459,14.838,16.43,31.206z M15.679,40.796c-0.273,9.069,0.845,16.556,3.175,20.377
	C8.54,56.518,1.144,46.561,0.13,34.773C2.486,37.391,8.287,39.537,15.679,40.796z M17.672,41.106
	c4.628,0.665,9.773,0.993,15.033,0.89c16.889-0.332,30.584-4.982,31.271-10.496C63.979,31.668,64,31.831,64,32
	c0,17.673-14.327,32-32,32c-3.604,0-7.064-0.604-10.296-1.703C18.833,59.046,17.411,51.052,17.672,41.106z"/>
<path display="none" fill-rule="evenodd" clip-rule="evenodd" d="M32,64C14.327,64,0,49.673,0,32S14.327,0,32,0s32,14.327,32,32
	S49.673,64,32,64z M56.028,46.348l-5.9-11.354l-4.373,9.765l4.627,8.329C52.597,51.154,54.507,48.881,56.028,46.348z M32,60
	c5.768,0,11.125-1.747,15.579-4.736L32,28L16.42,55.264C20.875,58.253,26.232,60,32,60z M13.618,53.087l4.627-8.329l-4.374-9.765
	L7.972,46.348C9.493,48.881,11.403,51.154,13.618,53.087z M32,4C16.536,4,4,16.536,4,32c0,3.424,0.627,6.697,1.755,9.726
	l6.513-12.535c0.02-0.037,0.045-0.066,0.065-0.101c0.04-0.068,0.081-0.134,0.128-0.197c0.041-0.056,0.085-0.106,0.13-0.157
	c0.046-0.05,0.092-0.1,0.142-0.146c0.057-0.052,0.116-0.097,0.177-0.141c0.031-0.023,0.058-0.052,0.091-0.073
	c0.02-0.012,0.04-0.018,0.06-0.03c0.063-0.038,0.13-0.068,0.196-0.099c0.058-0.025,0.114-0.052,0.173-0.071
	c0.062-0.021,0.125-0.034,0.188-0.047c0.063-0.014,0.127-0.029,0.191-0.036c0.063-0.007,0.127-0.006,0.191-0.006
	c0.063,0,0.127-0.001,0.19,0.006c0.064,0.007,0.128,0.021,0.192,0.036c0.063,0.014,0.126,0.027,0.188,0.047
	c0.059,0.02,0.115,0.046,0.173,0.072c0.066,0.03,0.132,0.06,0.196,0.098c0.02,0.012,0.04,0.018,0.06,0.03
	c0.033,0.021,0.06,0.05,0.091,0.073c0.061,0.044,0.12,0.089,0.177,0.141c0.05,0.046,0.096,0.095,0.142,0.146
	c0.045,0.05,0.089,0.101,0.13,0.157c0.047,0.063,0.088,0.128,0.127,0.196c0.021,0.035,0.047,0.064,0.066,0.101l0.042,0.094
	c0.013,0.027,0.024,0.054,0.036,0.082l4.903,10.948L32,20l11.285,20.314l4.904-10.948c0.011-0.028,0.023-0.055,0.036-0.082
	l0.042-0.094c0.02-0.037,0.045-0.066,0.065-0.101c0.04-0.068,0.081-0.133,0.127-0.196c0.042-0.056,0.086-0.106,0.131-0.157
	c0.046-0.05,0.092-0.1,0.142-0.146c0.057-0.052,0.115-0.097,0.176-0.141c0.032-0.023,0.059-0.051,0.092-0.073
	c0.02-0.012,0.04-0.018,0.06-0.03c0.063-0.038,0.13-0.068,0.196-0.098c0.058-0.026,0.114-0.052,0.173-0.072
	c0.062-0.021,0.125-0.034,0.188-0.047c0.063-0.014,0.127-0.029,0.191-0.036c0.063-0.007,0.127-0.006,0.191-0.006
	c0.063,0,0.127-0.001,0.19,0.006c0.064,0.007,0.128,0.021,0.192,0.036c0.063,0.014,0.126,0.027,0.188,0.047
	c0.059,0.02,0.115,0.046,0.172,0.071c0.067,0.03,0.133,0.061,0.197,0.099c0.02,0.012,0.04,0.018,0.06,0.03
	c0.033,0.021,0.059,0.05,0.091,0.073c0.061,0.044,0.12,0.089,0.177,0.141c0.05,0.046,0.096,0.095,0.141,0.146
	c0.046,0.05,0.09,0.101,0.131,0.157c0.047,0.063,0.088,0.129,0.128,0.197c0.021,0.035,0.046,0.064,0.064,0.101l6.514,12.535
	C59.373,38.697,60,35.424,60,32C60,16.536,47.464,4,32,4z"/>
<path display="none" fill-rule="evenodd" clip-rule="evenodd" d="M60,64H4c-2.209,0-4-1.791-4-4V4c0-2.209,1.791-4,4-4h56
	c2.209,0,4,1.791,4,4v56C64,62.209,62.209,64,60,64z M49,60L32,32L15,60H49z M4,60h7l6.043-10.359
	c-0.312-0.188-0.585-0.465-0.775-0.832l-4.396-9.815L5.732,50.809C5.362,51.521,4.69,51.91,4,51.911V60z M60,4H4v41.254
	l6.268-12.063c0.02-0.037,0.045-0.066,0.065-0.102c0.04-0.067,0.081-0.133,0.127-0.196c0.042-0.056,0.086-0.107,0.132-0.158
	c0.045-0.05,0.091-0.099,0.141-0.145c0.057-0.052,0.116-0.097,0.177-0.142c0.031-0.023,0.058-0.051,0.091-0.072
	c0.02-0.012,0.04-0.018,0.06-0.03c0.063-0.038,0.13-0.069,0.196-0.099c0.058-0.025,0.114-0.052,0.173-0.071
	c0.062-0.021,0.125-0.034,0.188-0.047c0.063-0.014,0.127-0.029,0.191-0.036c0.063-0.007,0.127-0.006,0.191-0.006
	c0.063,0,0.127-0.001,0.19,0.006c0.065,0.007,0.128,0.021,0.192,0.036c0.063,0.014,0.126,0.027,0.188,0.047
	c0.059,0.02,0.115,0.046,0.173,0.072c0.066,0.03,0.132,0.06,0.195,0.098c0.02,0.011,0.041,0.018,0.061,0.03
	c0.033,0.021,0.06,0.05,0.092,0.073c0.06,0.043,0.119,0.089,0.175,0.14c0.051,0.046,0.097,0.096,0.143,0.146
	c0.045,0.05,0.089,0.101,0.13,0.156c0.047,0.063,0.088,0.129,0.128,0.196c0.021,0.035,0.046,0.064,0.065,0.102l0.041,0.094
	c0.013,0.027,0.025,0.054,0.037,0.082l5.527,12.34L32,24l12.662,21.707l5.526-12.34c0.012-0.028,0.024-0.055,0.037-0.082
	l0.042-0.094c0.02-0.037,0.045-0.066,0.065-0.102c0.04-0.067,0.081-0.133,0.127-0.196c0.042-0.056,0.086-0.106,0.131-0.157
	c0.046-0.05,0.092-0.1,0.142-0.146c0.057-0.052,0.115-0.097,0.176-0.141c0.032-0.023,0.059-0.051,0.092-0.073
	c0.02-0.012,0.04-0.018,0.06-0.03c0.063-0.038,0.13-0.068,0.196-0.098c0.058-0.026,0.114-0.052,0.173-0.072
	c0.062-0.021,0.125-0.034,0.188-0.047c0.063-0.014,0.127-0.029,0.191-0.036c0.063-0.007,0.127-0.006,0.191-0.006
	c0.063,0,0.127-0.001,0.19,0.006c0.064,0.007,0.128,0.021,0.192,0.036c0.063,0.014,0.127,0.027,0.188,0.047
	c0.059,0.02,0.115,0.046,0.172,0.071c0.067,0.03,0.133,0.061,0.197,0.099c0.02,0.012,0.04,0.018,0.06,0.03
	c0.032,0.021,0.059,0.049,0.09,0.072c0.062,0.044,0.121,0.09,0.178,0.142c0.05,0.046,0.096,0.095,0.141,0.145
	c0.046,0.051,0.09,0.102,0.131,0.157c0.047,0.063,0.088,0.129,0.128,0.196c0.021,0.035,0.046,0.064,0.064,0.102L60,45.254V4z
	 M60,51.911c-0.69-0.001-1.362-0.39-1.732-1.103l-6.14-11.815l-4.396,9.815c-0.189,0.367-0.463,0.644-0.774,0.832L53,60h7V51.911z"
	/>
<g display="none">
	<rect x="20" y="49" width="24" height="4"/>
	<path d="M48.5,5H4v56h56V16.5L48.5,5z M16,9h16v12h8V9h8v20H16V9z M52,57H12V42.496C12,39.182,15.186,36,18.5,36h28
		c3.313,0,5.5,3.182,5.5,6.496V57z"/>
	<rect x="20" y="41" width="24" height="4"/>
</g>
<g display="none">
</g>
<g display="none">
	<path display="inline" d="M48,5H4v56h56V16.5L48,5z M16,9h16v12h8V9h8v20H16V9z M52,57H12V42.496C12,39.182,14.686,36,18,36h28
		c3.313,0,6,3.182,6,6.496V57z"/>
	<rect x="20" y="49" display="inline" width="24" height="4"/>
	<rect x="20" y="41" display="inline" width="24" height="4"/>
</g>
</svg>
