<?xml version="1.0" encoding="utf-8"?>
<!-- Generator: Adobe Illustrator 16.0.0, SVG Export Plug-In . SVG Version: 6.00 Build 0)  -->
<!DOCTYPE svg PUBLIC "-//W3C//DTD SVG 1.1//EN" "http://www.w3.org/Graphics/SVG/1.1/DTD/svg11.dtd">
<svg version="1.1" id="Layer_1" xmlns="http://www.w3.org/2000/svg" xmlns:xlink="http://www.w3.org/1999/xlink" x="0px" y="0px"
	 width="64px" height="64px" viewBox="0 0 64 64" enable-background="new 0 0 64 64" xml:space="preserve">
<path fill-rule="evenodd" clip-rule="evenodd" d="M23.075,22.834L28,17.899v26.104C28,46.21,29.795,48,32,48s4-1.79,4-3.997V17.862
	l4.969,4.979c1.609,1.612,4.218,1.612,5.827,0c1.61-1.611,1.609-4.225-0.001-5.836L35.137,5.331
	c-0.404-0.404-0.88-0.676-1.378-0.875c-0.185-0.091-0.376-0.164-0.575-0.226c-0.103-0.035-0.204-0.07-0.309-0.096
	c-0.053-0.012-0.106-0.021-0.16-0.031c-1.321-0.275-2.746,0.084-3.771,1.111L17.213,16.961c-1.62,1.621-1.622,4.251-0.002,5.873
	S21.455,24.456,23.075,22.834z M55.911,10.743l-3.341,7.054C55.361,21.831,57,26.723,57,32c0,13.807-11.193,25-25,25
	C18.193,57,7,45.807,7,32c0-5.277,1.639-10.169,4.43-14.204l-3.341-7.054C3.06,16.396,0,23.839,0,32c0,17.673,14.327,32,32,32
	c17.673,0,32-14.327,32-32C64,23.839,60.94,16.396,55.911,10.743z"/>
</svg>
