<?xml version="1.0" encoding="utf-8"?>
<!-- Generator: Adobe Illustrator 16.0.0, SVG Export Plug-In . SVG Version: 6.00 Build 0)  -->
<!DOCTYPE svg PUBLIC "-//W3C//DTD SVG 1.1//EN" "http://www.w3.org/Graphics/SVG/1.1/DTD/svg11.dtd">
<svg version="1.1" id="Layer_1" xmlns="http://www.w3.org/2000/svg" xmlns:xlink="http://www.w3.org/1999/xlink" x="0px" y="0px"
	 width="64px" height="64px" viewBox="0 0 64 64" enable-background="new 0 0 64 64" xml:space="preserve">
<g>
	<path d="M58,17c1.104,0,2-0.896,2-2v-4c0-1.104-0.896-2-2-2H28c0,0-8.619-6-10-6H4C1.791,3,0,4.791,0,7v37l8-27H58z"/>
	<path d="M11,21L8,31.638L0.287,58.982C0.109,59.281,0,59.627,0,60v4h50c1.104,0,2-0.896,2-2l12-41H11z"/>
</g>
</svg>
