<?xml version="1.0" encoding="utf-8"?>
<!-- Generator: Adobe Illustrator 16.0.0, SVG Export Plug-In . SVG Version: 6.00 Build 0)  -->
<!DOCTYPE svg PUBLIC "-//W3C//DTD SVG 1.1//EN" "http://www.w3.org/Graphics/SVG/1.1/DTD/svg11.dtd">
<svg version="1.1" id="Layer_1" xmlns="http://www.w3.org/2000/svg" xmlns:xlink="http://www.w3.org/1999/xlink" x="0px" y="0px"
	 width="64px" height="64px" viewBox="0 0 64 64" enable-background="new 0 0 64 64" xml:space="preserve">
<g>
	<g>
		<path d="M60,14H4c-2.209,0-4,1.791-4,4l8,39.875C8,60.084,9.666,62,11.875,62H52c2.209,0,4-1.916,4-4.125L64,18
			C64,15.791,62.209,14,60,14z M60,8c0-1.105-0.896-2-2-2H24c0-2.209-1.791-4-4-4H8C5.791,2,4,3.791,4,6c0,2.209-0.125,4-0.125,4H60
			C60,10,60,9.104,60,8z"/>
	</g>
</g>
</svg>
