<?xml version="1.0" encoding="utf-8"?>
<!-- Generator: Adobe Illustrator 16.0.0, SVG Export Plug-In . SVG Version: 6.00 Build 0)  -->
<!DOCTYPE svg PUBLIC "-//W3C//DTD SVG 1.0//EN" "http://www.w3.org/TR/2001/REC-SVG-20010904/DTD/svg10.dtd">
<svg version="1.0" id="Layer_1" xmlns="http://www.w3.org/2000/svg" xmlns:xlink="http://www.w3.org/1999/xlink" x="0px" y="0px"
	 width="64px" height="64px" viewBox="0 0 64 64" enable-background="new 0 0 64 64" xml:space="preserve">
<path fill-rule="evenodd" clip-rule="evenodd" d="M60,36c-2.209,0-4-1.791-4-4c0-2.209,1.791-4,4-4s4,1.791,4,4
	C64,34.209,62.209,36,60,36z M52,16c-2.209,0-4-1.791-4-4c0-2.209,1.791-4,4-4s4,1.791,4,4C56,14.209,54.209,16,52,16z M32,52
	c-11.046,0-20-8.955-20-20c0-11.046,8.954-20,20-20s20,8.954,20,20C52,43.045,43.046,52,32,52z M32,8c-2.209,0-4-1.791-4-4
	c0-2.209,1.791-4,4-4s4,1.791,4,4C36,6.209,34.209,8,32,8z M12,16c-2.209,0-4-1.791-4-4c0-2.209,1.791-4,4-4s4,1.791,4,4
	C16,14.209,14.209,16,12,16z M4,36c-2.209,0-4-1.791-4-4c0-2.209,1.791-4,4-4s4,1.791,4,4C8,34.209,6.209,36,4,36z M12,48
	c2.209,0,4,1.791,4,4s-1.791,4-4,4s-4-1.791-4-4S9.791,48,12,48z M32,56c2.209,0,4,1.791,4,4s-1.791,4-4,4s-4-1.791-4-4
	S29.791,56,32,56z M52,48c2.209,0,4,1.791,4,4s-1.791,4-4,4s-4-1.791-4-4S49.791,48,52,48z"/>
<path display="none" fill-rule="evenodd" clip-rule="evenodd" d="M24,16c0,15.464,12.535,28,28,28c3.68,0,7.184-0.729,10.404-2.02
	C58.209,54.765,46.186,64,32,64C14.327,64,0,49.673,0,32C0,15.363,12.696,1.696,28.928,0.149C25.825,4.657,24,10.113,24,16z"/>
<path display="none" fill-rule="evenodd" clip-rule="evenodd" d="M32,64C14.327,64,0,49.673,0,32C0,14.327,14.327,0,32,0
	c17.673,0,32,14.327,32,32C64,49.673,49.674,64,32,64z M46,34H31V15c0-1.657-1.344-3-3-3s-3,1.343-3,3v22c0,1.656,1.344,3,3,3h18
	c1.656,0,3-1.344,3-3S47.656,34,46,34z"/>
<path display="none" fill-rule="evenodd" clip-rule="evenodd" d="M32,64C14.327,64,0,49.673,0,32C0,14.327,14.327,0,32,0
	c17.673,0,32,14.327,32,32C64,49.673,49.674,64,32,64z M32,6C17.641,6,6,17.64,6,32c0,14.36,11.641,26,26,26
	c14.289,0,25.876-11.53,25.99-25.793c-0.635,0.837-1.463,1.768-2.563,2.827C50.857,39.447,44,28.414,44,28.414s4.572,4.414,6.857,0
	c1.641-3.17,4.453-4.06,5.912-4.312C53.426,13.605,43.605,6,32,6z M39.525,40.186c-0.154,0.693-1.08,2.357-1.695,3.468
	c-0.617,1.11-0.926,1.525-1.697,2.081c-0.771,0.555-1.234,1.525-1.234,1.525l-0.154,2.358c0,0,0.771,1.526,1.234,2.22
	S35.053,56,35.053,56c-1.338-0.23-2.263-0.555-2.726-1.665s-1.131-0.833-0.977-2.081s-2.16-2.773-2.623-3.468
	c-0.462-0.694-1.079-1.665-1.079-2.358s-1.697-1.664-1.697-1.664s-3.085-1.25-3.548-1.804c-0.463-0.556-0.926-2.913-1.08-3.885
	s0.463-3.468,0.463-3.468s1.234-0.833,0.463-1.527c-0.771-0.693-0.926-2.496-0.926-2.496L18.545,32c0,0-2.391-1.489-2.545-2.182
	c-0.154-0.693-0.154-3.669,0-4.364c0.153-0.693,0-3.67,0-4.364C21.76,8.381,33.973,8,33.973,8l0.771,2.914
	c0,0-1.697,0.416-2.623,0.139c-0.926-0.278-1.389-0.278-1.389-0.278L29.499,12.3c0,0-0.463,0.971-0.617,1.526
	c-0.154,0.555,0.309,1.388,0.309,1.388s2.16,0.139,2.16-0.416c0-0.555-0.309-0.833-0.309-0.833l-0.309-0.971
	c0,0,1.697-1.041,5.4-0.763c3.701,0.277,2.236,2.982,3.779,3.537c1.543,0.555-1.654,4.822-1.93,3.607
	c0.85,3.746-1.115-0.722-3.162,3.33c-0.771,1.526-3.162,1.526-3.162,1.526s0.463,0.694,0.926,1.526
	c0.462,0.833-0.154,2.774-0.154,3.329s-2.777-0.971-3.086-2.358c-0.309-1.387-1.234-0.971-1.852-0.832
	c-0.616,0.138-2.622,0.555-2.931-0.139c-0.309-0.694-2.236,1.387-3.008,1.803c-0.771,0.417-1.312,1.526-0.077,0.971
	c1.234-0.554,2.854,0.139,2.545,1.249c-0.154-0.693-0.309,1.11,0,0c0.154,0.694-0.54,2.22-0.23,3.191
	c0.308,0.971,3.239,0.139,4.164-0.277c0.926-0.416,3.549-0.832,3.857,0.277s5.939,0.971,7.019,1.248s3.703,1.111,4.938,2.221
	C45.002,37.549,39.68,39.491,39.525,40.186z"/>
<path display="none" fill-rule="evenodd" clip-rule="evenodd" d="M56,60h-8v-4h8v-8h4v8C60,58.209,58.209,60,56,60z M56,8h-8V4h8
	c2.209,0,4,1.791,4,4v8h-4V8z M8,16H4V8c0-2.209,1.791-4,4-4h8v4H8V16z M12,12h40v40H12V12z M18,46h28V18H18V46z M8,56h8v4H8
	c-2.209,0-4-1.791-4-4v-8h4V56z"/>
<g display="none">
	<circle display="inline" cx="10.5" cy="45.5" r="2"/>
	<circle display="inline" cx="34.5" cy="5.5" r="2"/>
	<circle display="inline" cx="10.5" cy="61.5" r="2"/>
	<circle display="inline" cx="38.5" cy="17.5" r="2"/>
	<circle display="inline" cx="46.5" cy="9.5" r="2"/>
	<circle display="inline" cx="54.5" cy="17.5" r="2"/>
	<circle display="inline" cx="62.5" cy="5.5" r="2"/>
	<circle display="inline" cx="50.5" cy="25.5" r="2"/>
	<circle display="inline" cx="14.5" cy="53.5" r="2"/>
	<circle display="inline" cx="22.5" cy="49.5" r="2"/>
	<path display="inline" d="M55.006,49.162L31.695,24.896c-1.646-1.639-4.128-1.824-5.773-0.185l-0.279,0.278
		c-1.646,1.639-1.459,4.111,0.186,5.75l24.365,23.216c1.637,1.63,3.723,2.194,5.364,0.587
		C57.172,52.906,56.643,50.791,55.006,49.162z"/>
	<path display="inline" d="M55.584,54.521c-0.008,0.009-0.018,0.013-0.026,0.021s-0.013,0.019-0.022,0.027L55.584,54.521z"/>
	<circle display="inline" cx="22.5" cy="61.5" r="2"/>
	<circle display="inline" cx="14.5" cy="37.5" r="2"/>
	<polygon display="inline" points="20.434,11.565 20.437,11.531 20.343,11.484 21.579,-0.5 13.029,7.852 12.944,7.81 12.889,7.864 
		3.929,3.469 8.416,12.234 8.373,12.275 8.414,12.359 0.5,20.089 11.777,19.171 11.801,19.221 11.984,19.207 18.277,31.5 
		19.607,18.616 19.801,18.601 19.809,18.518 32.5,17.484 	"/>
</g>
<path display="none" fill-rule="evenodd" clip-rule="evenodd" d="M32.705,39.996c-5.232,0.104-10.353-0.223-14.963-0.88
	c0.121-2.556,0.348-5.222,0.688-7.956c1.992-16.066,9.532-28.084,16.319-31.035c15.688,1.336,28.119,13.992,29.15,29.764
	C62.632,35.231,49.194,39.672,32.705,39.996z M16.43,31.206c-0.324,2.611-0.543,5.156-0.668,7.605
	C8.21,37.533,2.313,35.329,0.024,32.645C0.02,32.429,0,32.217,0,32C0,14.327,14.327,0,32,0c0.379,0,0.754,0.016,1.129,0.028
	C26.245,2.686,18.459,14.838,16.43,31.206z M15.679,40.796c-0.273,9.069,0.845,16.556,3.175,20.377
	C8.54,56.518,1.144,46.561,0.13,34.773C2.486,37.391,8.287,39.537,15.679,40.796z M17.672,41.106
	c4.628,0.665,9.773,0.993,15.033,0.89c16.889-0.332,30.584-4.982,31.271-10.496C63.979,31.668,64,31.831,64,32
	c0,17.673-14.327,32-32,32c-3.604,0-7.064-0.604-10.296-1.703C18.833,59.046,17.411,51.052,17.672,41.106z"/>
<path display="none" fill-rule="evenodd" clip-rule="evenodd" d="M32,64C14.327,64,0,49.673,0,32S14.327,0,32,0s32,14.327,32,32
	S49.673,64,32,64z M56.028,46.348l-5.9-11.354l-4.373,9.765l4.627,8.329C52.597,51.154,54.507,48.881,56.028,46.348z M32,60
	c5.768,0,11.125-1.747,15.579-4.736L32,28L16.42,55.264C20.875,58.253,26.232,60,32,60z M13.618,53.087l4.627-8.329l-4.374-9.765
	L7.972,46.348C9.493,48.881,11.403,51.154,13.618,53.087z M32,4C16.536,4,4,16.536,4,32c0,3.424,0.627,6.697,1.755,9.726
	l6.513-12.535c0.02-0.037,0.045-0.066,0.065-0.101c0.04-0.068,0.081-0.134,0.128-0.197c0.041-0.056,0.085-0.106,0.13-0.157
	c0.046-0.05,0.092-0.1,0.142-0.146c0.057-0.052,0.116-0.097,0.177-0.141c0.031-0.023,0.058-0.052,0.091-0.073
	c0.02-0.012,0.04-0.018,0.06-0.03c0.063-0.038,0.13-0.068,0.196-0.099c0.058-0.025,0.114-0.052,0.173-0.071
	c0.062-0.021,0.125-0.034,0.188-0.047c0.063-0.014,0.127-0.029,0.191-0.036c0.063-0.007,0.127-0.006,0.191-0.006
	c0.063,0,0.127-0.001,0.19,0.006c0.064,0.007,0.128,0.021,0.192,0.036c0.063,0.014,0.126,0.027,0.188,0.047
	c0.059,0.02,0.115,0.046,0.173,0.072c0.066,0.03,0.132,0.06,0.196,0.098c0.02,0.012,0.04,0.018,0.06,0.03
	c0.033,0.021,0.06,0.05,0.091,0.073c0.061,0.044,0.12,0.089,0.177,0.141c0.05,0.046,0.096,0.095,0.142,0.146
	c0.045,0.05,0.089,0.101,0.13,0.157c0.047,0.063,0.088,0.128,0.127,0.196c0.021,0.035,0.047,0.064,0.066,0.101l0.042,0.094
	c0.013,0.027,0.024,0.054,0.036,0.082l4.903,10.948L32,20l11.285,20.314l4.904-10.948c0.011-0.028,0.023-0.055,0.036-0.082
	l0.042-0.094c0.02-0.037,0.045-0.066,0.065-0.101c0.04-0.068,0.081-0.133,0.127-0.196c0.042-0.056,0.086-0.106,0.131-0.157
	c0.046-0.05,0.092-0.1,0.142-0.146c0.057-0.052,0.115-0.097,0.176-0.141c0.032-0.023,0.059-0.051,0.092-0.073
	c0.02-0.012,0.04-0.018,0.06-0.03c0.063-0.038,0.13-0.068,0.196-0.098c0.058-0.026,0.114-0.052,0.173-0.072
	c0.062-0.021,0.125-0.034,0.188-0.047c0.063-0.014,0.127-0.029,0.191-0.036c0.063-0.007,0.127-0.006,0.191-0.006
	c0.063,0,0.127-0.001,0.19,0.006c0.064,0.007,0.128,0.021,0.192,0.036c0.063,0.014,0.126,0.027,0.188,0.047
	c0.059,0.02,0.115,0.046,0.172,0.071c0.067,0.03,0.133,0.061,0.197,0.099c0.02,0.012,0.04,0.018,0.06,0.03
	c0.033,0.021,0.059,0.05,0.091,0.073c0.061,0.044,0.12,0.089,0.177,0.141c0.05,0.046,0.096,0.095,0.141,0.146
	c0.046,0.05,0.09,0.101,0.131,0.157c0.047,0.063,0.088,0.129,0.128,0.197c0.021,0.035,0.046,0.064,0.064,0.101l6.514,12.535
	C59.373,38.697,60,35.424,60,32C60,16.536,47.464,4,32,4z"/>
<path display="none" fill-rule="evenodd" clip-rule="evenodd" d="M60,64H4c-2.209,0-4-1.791-4-4V4c0-2.209,1.791-4,4-4h56
	c2.209,0,4,1.791,4,4v56C64,62.209,62.209,64,60,64z M49,60L32,32L15,60H49z M4,60h7l6.043-10.359
	c-0.312-0.188-0.585-0.465-0.775-0.832l-4.396-9.815L5.732,50.809C5.362,51.521,4.69,51.91,4,51.911V60z M60,4H4v41.254
	l6.268-12.063c0.02-0.037,0.045-0.066,0.065-0.102c0.04-0.067,0.081-0.133,0.127-0.196c0.042-0.056,0.086-0.107,0.132-0.158
	c0.045-0.05,0.091-0.099,0.141-0.145c0.057-0.052,0.116-0.097,0.177-0.142c0.031-0.023,0.058-0.051,0.091-0.072
	c0.02-0.012,0.04-0.018,0.06-0.03c0.063-0.038,0.13-0.069,0.196-0.099c0.058-0.025,0.114-0.052,0.173-0.071
	c0.062-0.021,0.125-0.034,0.188-0.047c0.063-0.014,0.127-0.029,0.191-0.036c0.063-0.007,0.127-0.006,0.191-0.006
	c0.063,0,0.127-0.001,0.19,0.006c0.065,0.007,0.128,0.021,0.192,0.036c0.063,0.014,0.126,0.027,0.188,0.047
	c0.059,0.02,0.115,0.046,0.173,0.072c0.066,0.03,0.132,0.06,0.195,0.098c0.02,0.011,0.041,0.018,0.061,0.03
	c0.033,0.021,0.06,0.05,0.092,0.073c0.06,0.043,0.119,0.089,0.175,0.14c0.051,0.046,0.097,0.096,0.143,0.146
	c0.045,0.05,0.089,0.101,0.13,0.156c0.047,0.063,0.088,0.129,0.128,0.196c0.021,0.035,0.046,0.064,0.065,0.102l0.041,0.094
	c0.013,0.027,0.025,0.054,0.037,0.082l5.527,12.34L32,24l12.662,21.707l5.526-12.34c0.012-0.028,0.024-0.055,0.037-0.082
	l0.042-0.094c0.02-0.037,0.045-0.066,0.065-0.102c0.04-0.067,0.081-0.133,0.127-0.196c0.042-0.056,0.086-0.106,0.131-0.157
	c0.046-0.05,0.092-0.1,0.142-0.146c0.057-0.052,0.115-0.097,0.176-0.141c0.032-0.023,0.059-0.051,0.092-0.073
	c0.02-0.012,0.04-0.018,0.06-0.03c0.063-0.038,0.13-0.068,0.196-0.098c0.058-0.026,0.114-0.052,0.173-0.072
	c0.062-0.021,0.125-0.034,0.188-0.047c0.063-0.014,0.127-0.029,0.191-0.036c0.063-0.007,0.127-0.006,0.191-0.006
	c0.063,0,0.127-0.001,0.19,0.006c0.064,0.007,0.128,0.021,0.192,0.036c0.063,0.014,0.127,0.027,0.188,0.047
	c0.059,0.02,0.115,0.046,0.172,0.071c0.067,0.03,0.133,0.061,0.197,0.099c0.02,0.012,0.04,0.018,0.06,0.03
	c0.032,0.021,0.059,0.049,0.09,0.072c0.062,0.044,0.121,0.09,0.178,0.142c0.05,0.046,0.096,0.095,0.141,0.145
	c0.046,0.051,0.09,0.102,0.131,0.157c0.047,0.063,0.088,0.129,0.128,0.196c0.021,0.035,0.046,0.064,0.064,0.102L60,45.254V4z
	 M60,51.911c-0.69-0.001-1.362-0.39-1.732-1.103l-6.14-11.815l-4.396,9.815c-0.189,0.367-0.463,0.644-0.774,0.832L53,60h7V51.911z"
	/>
<g display="none">
	<rect x="20" y="49" width="24" height="4"/>
	<path d="M48.5,5H4v56h56V16.5L48.5,5z M16,9h16v12h8V9h8v20H16V9z M52,57H12V42.496C12,39.182,15.186,36,18.5,36h28
		c3.313,0,5.5,3.182,5.5,6.496V57z"/>
	<rect x="20" y="41" width="24" height="4"/>
</g>
<g display="none">
</g>
<g display="none">
	<path display="inline" d="M48,5H4v56h56V16.5L48,5z M16,9h16v12h8V9h8v20H16V9z M52,57H12V42.496C12,39.182,14.686,36,18,36h28
		c3.313,0,6,3.182,6,6.496V57z"/>
	<rect x="20" y="49" display="inline" width="24" height="4"/>
	<rect x="20" y="41" display="inline" width="24" height="4"/>
</g>
</svg>
