<?xml version="1.0" encoding="utf-8"?>
<!-- Generator: Adobe Illustrator 16.0.0, SVG Export Plug-In . SVG Version: 6.00 Build 0)  -->
<!DOCTYPE svg PUBLIC "-//W3C//DTD SVG 1.1//EN" "http://www.w3.org/Graphics/SVG/1.1/DTD/svg11.dtd">
<svg version="1.1" id="Layer_1" xmlns="http://www.w3.org/2000/svg" xmlns:xlink="http://www.w3.org/1999/xlink" x="0px" y="0px"
	 width="64px" height="64px" viewBox="0 0 64 64" enable-background="new 0 0 64 64" xml:space="preserve">
<g>
	<path d="M28.938,46.315c1.027,1.027,2.455,1.388,3.779,1.112c0.053-0.01,0.106-0.019,0.159-0.031
		c0.107-0.026,0.211-0.063,0.316-0.098c0.195-0.062,0.384-0.133,0.565-0.223c0.501-0.198,0.979-0.472,1.384-0.877l11.682-11.682
		c1.612-1.613,1.612-4.228,0-5.841c-1.613-1.613-4.228-1.613-5.841,0L36,33.659V7.5c0-2.209-1.791-4-4-4s-4,1.791-4,4v26.123
		l-4.939-4.939c-1.622-1.623-4.254-1.623-5.876,0c-1.623,1.623-1.623,4.255,0,5.878L28.938,46.315z"/>
	<path d="M55.911,10.243l-3.341,7.054C55.361,21.331,57,26.223,57,31.5c0,13.807-11.193,25-25,25S7,45.307,7,31.5
		c0-5.328,1.676-10.17,4.458-14.145l-3.369-7.113C3.06,15.896,0,23.339,0,31.5c0,17.673,14.327,32,32,32c17.673,0,32-14.327,32-32
		C64,23.339,60.94,15.896,55.911,10.243z"/>
</g>
</svg>
